<svg width="21" height="20" viewBox="0 0 21 20" fill="none" xmlns="http://www.w3.org/2000/svg">
<path d="M15.0087 16.875H8.65282C5.93938 16.875 3.73183 14.7722 3.73183 12.1875V7.38289C3.73183 4.98017 2.4746 2.75616 0.368787 1.43359C-0.00939089 1.19609 -0.113798 0.711564 0.135532 0.351331C0.384862 -0.00893986 0.893487 -0.108431 1.27175 0.129145C2.47386 0.884141 3.44912 1.87992 4.1465 3.02639C4.29721 3.18721 5.51245 4.41416 7.50463 4.41416H16.9491C19.5258 4.36826 21.5426 6.83141 20.869 9.20053L19.7817 13.3282C19.2317 15.4165 17.269 16.875 15.0087 16.875ZM5.16523 5.53528C5.30158 6.13532 5.37216 6.75403 5.37216 7.38289V12.1875C5.37216 13.9107 6.84386 15.3125 8.65282 15.3125H15.0087C16.5155 15.3125 17.824 14.3402 18.1907 12.948L19.2779 8.8203C19.6782 7.41258 18.4797 5.94942 16.9491 5.97665H7.50459C6.60359 5.97665 5.81935 5.79161 5.16523 5.53528ZM8.24273 19.0234C8.24273 18.4841 7.78373 18.0469 7.21753 18.0469C5.8572 18.0985 5.85839 19.9489 7.21753 20C7.78373 20 8.24273 19.5628 8.24273 19.0234ZM16.4034 19.0234C16.4034 18.4841 15.9444 18.0469 15.3782 18.0469C14.0178 18.0985 14.019 19.9489 15.3782 20C15.9444 20 16.4034 19.5628 16.4034 19.0234ZM17.7693 8.32038C17.7693 7.8889 17.4021 7.53914 16.9491 7.53914H7.83265C6.74446 7.58039 6.74528 9.06073 7.83265 9.10163H16.9491C17.4021 9.10163 17.7693 8.75187 17.7693 8.32038Z" fill="#3D3D3D"/>
</svg>
