<svg width="13" height="11" viewBox="0 0 13 11" fill="none" xmlns="http://www.w3.org/2000/svg">
<path d="M10.1991 6.57421C10.0372 6.70697 9.9628 6.89897 9.99968 7.08727L10.5553 9.68956C10.6022 9.91013 10.4922 10.1333 10.2741 10.2608C10.0603 10.393 9.77593 10.4089 9.5428 10.3031L6.77468 9.0813C6.67843 9.03793 6.57155 9.01466 6.46218 9.01202H6.2928C6.23405 9.01942 6.17655 9.03529 6.12405 9.05962L3.3553 10.2872C3.21843 10.3454 3.06343 10.3661 2.91155 10.3454C2.54155 10.2862 2.29468 9.98788 2.3553 9.67317L2.91155 7.07087C2.94843 6.88099 2.87405 6.68793 2.71218 6.55306L0.455303 4.70183C0.266553 4.54686 0.200928 4.31413 0.287178 4.10415C0.370928 3.8947 0.584678 3.74184 0.842803 3.70746L3.94905 3.3261C4.1853 3.30548 4.3928 3.18383 4.49905 3.00399L5.8678 0.629132C5.9003 0.57624 5.94218 0.527579 5.9928 0.486323L6.04905 0.449298C6.07843 0.421795 6.11218 0.399051 6.14968 0.380539L6.2178 0.359382L6.32405 0.322357H6.58718C6.82218 0.342985 7.02905 0.461993 7.13718 0.63971L8.52405 3.00399C8.62405 3.17695 8.81843 3.29701 9.0428 3.3261L12.1491 3.70746C12.4116 3.73919 12.6309 3.89258 12.7178 4.10415C12.7997 4.31625 12.7291 4.54897 12.5366 4.70183L10.1991 6.57421Z" fill="#FFAC0C"/>
</svg>
