<svg width="90" height="89" viewBox="0 0 90 89" fill="none" xmlns="http://www.w3.org/2000/svg">
<circle cx="37" cy="52" r="37" fill="#46A358" fill-opacity="0.13"/>
<g clip-path="url(#clip0_27_654)">
<path d="M51.3006 44.0271C51.3205 44.5113 51.4595 44.9693 51.7176 45.3815C51.9393 45.7414 52.5053 45.3979 52.2835 45.0413C52.0883 44.7239 51.979 44.3869 51.9658 44.0172C51.946 43.5952 51.2841 43.6083 51.3006 44.0271Z" fill="#46A358"/>
<path d="M59.8093 43.9844C59.7762 44.1676 59.7398 44.3476 59.7067 44.5308C59.6736 44.7042 59.7663 44.8841 59.945 44.9299C60.1105 44.9724 60.3156 44.8678 60.3487 44.6944C60.3818 44.5111 60.4182 44.3312 60.4513 44.148C60.4844 43.9746 60.3918 43.7946 60.2131 43.7488C60.0476 43.7063 59.8424 43.811 59.8093 43.9844Z" fill="#46A358"/>
<path d="M64.3401 44.6355C64.767 44.6257 64.7538 43.9714 64.3268 43.9812C63.8999 43.991 63.9131 44.6453 64.3401 44.6355Z" fill="#46A358"/>
<path d="M39.4823 45.7937C39.9092 45.7839 39.896 45.1296 39.469 45.1394C39.0421 45.1492 39.0554 45.8035 39.4823 45.7937Z" fill="#46A358"/>
<path d="M51.5885 4.38731C49.0335 11.8369 47.6402 19.6399 47.488 27.5083C47.4118 31.4638 47.6468 35.4225 48.1929 39.342C48.4444 41.1479 48.7621 42.9474 49.146 44.7304C49.4472 46.1242 49.6027 47.7175 50.6486 48.7808C51.0953 49.2355 51.7804 48.5256 51.3369 48.0741C50.2084 46.9257 50.0926 44.4981 49.8013 42.9964C49.434 41.0989 49.1427 39.1849 48.9276 37.2612C48.5205 33.6231 48.3848 29.9588 48.5139 26.301C48.7754 18.9201 50.1554 11.621 52.5515 4.62941C52.7567 4.03069 51.7903 3.79186 51.5885 4.38731Z" fill="#46A358"/>
<path d="M55.4407 4.52141C56.7778 11.9645 56.8109 19.5712 57.0789 27.1058C57.2047 30.6458 57.4198 34.1956 57.347 37.7388C57.2709 41.4162 56.5461 44.8744 55.5698 48.4078C55.401 49.0196 56.3641 49.2584 56.5329 48.6499C57.4496 45.3422 58.1777 42.0771 58.3167 38.6353C58.4722 34.791 58.2108 30.9272 58.0751 27.0895C57.8037 19.4632 57.7475 11.778 56.3939 4.24332C56.2814 3.6217 55.3282 3.90307 55.4407 4.52141Z" fill="#46A358"/>
<path d="M62.6291 17.3105C63.0825 27.4952 63.4929 37.8043 60.9776 47.7796C60.8221 48.3947 61.7851 48.6336 61.9407 48.0217C64.4758 37.9613 64.0819 27.5606 63.6219 17.2908C63.5921 16.6594 62.5993 16.6758 62.6291 17.3105Z" fill="#46A358"/>
<path d="M59.8226 17.4609C58.4161 19.0869 57.4762 20.978 57.0625 23.0817C56.94 23.7 57.9031 23.9454 58.0256 23.3238C58.4062 21.3804 59.2368 19.6464 60.5375 18.1414C60.9512 17.6605 60.2396 16.98 59.8226 17.4609Z" fill="#46A358"/>
<path d="M69.6055 23.7164C69.5824 31.0908 68.5829 38.3965 66.6236 45.5124C66.4549 46.1242 67.4179 46.363 67.5867 45.7545C69.5658 38.5568 70.5752 31.1562 70.5984 23.6968C70.5984 23.0654 69.6055 23.085 69.6055 23.7164Z" fill="#46A358"/>
<path d="M67.719 21.5211C65.1509 24.4624 63.8899 28.0841 62.9831 31.8106C62.8342 32.4257 63.7973 32.6678 63.9462 32.0527C64.8133 28.5029 65.9849 25.012 68.4372 22.2017C68.8509 21.724 68.136 21.0402 67.719 21.5211Z" fill="#46A358"/>
<path d="M43.7549 10.4171C45.5221 14.5329 46.8062 18.7991 47.6005 23.1995C47.713 23.8212 48.6629 23.5365 48.5537 22.9182C47.7594 18.5178 46.472 14.2515 44.708 10.1357C44.4598 9.56317 43.5067 9.83472 43.7549 10.4171Z" fill="#46A358"/>
<path d="M41.9148 10.7736C41.3952 17.0193 40.8855 23.3434 41.9379 29.5662C43.04 36.0572 45.7472 42.3912 47.8289 48.6237C48.0274 49.2224 48.9806 48.9443 48.782 48.3423C46.7665 42.2995 44.1619 36.1553 42.997 29.8868C41.8254 23.5757 42.3781 17.101 42.9076 10.754C42.9606 10.1258 41.9677 10.1487 41.9148 10.7736Z" fill="#46A358"/>
<path d="M35.5969 25.8626C38.9097 28.9118 41.5937 32.4779 43.6059 36.4858C43.8905 37.0518 44.7345 36.5348 44.4532 35.9721C42.4046 31.8923 39.6577 28.2575 36.2853 25.1526C35.8186 24.7241 35.1303 25.4307 35.5969 25.8626Z" fill="#46A358"/>
<path d="M33.3233 27.1222C35.8882 34.6995 39.34 41.9364 43.6258 48.7088C43.9634 49.2454 44.8139 48.735 44.4731 48.1951C40.2303 41.4915 36.8148 34.3396 34.2764 26.8409C34.0746 26.2454 33.1214 26.5203 33.3233 27.1222Z" fill="#46A358"/>
<path d="M39.0686 46.7621C37.6058 44.1774 35.4612 42.0279 32.7937 40.6604C32.251 40.3823 31.7314 40.4542 32.7838 40.3496C33.1677 40.3103 33.5649 40.2939 33.9488 40.3005C35.1998 40.3136 36.3316 40.536 37.4072 41.2067C38.6582 41.9854 39.7503 43.1043 40.869 44.0564C41.3521 44.4686 42.0405 43.7619 41.5573 43.3497C40.1409 42.1392 38.7376 40.6276 37.0001 39.8752C36.0304 39.4531 34.9813 39.3288 33.9289 39.3255C33.2604 39.3222 31.8704 39.1979 31.3111 39.7607C30.2189 40.8534 32.3106 41.4979 32.9625 41.8807C35.1998 43.1828 36.9604 45.0542 38.2213 47.2855C38.5324 47.8286 39.3797 47.315 39.0686 46.7621Z" fill="#46A358"/>
<path d="M69.2811 38.7923C70.2508 36.6559 72.5046 35.9852 74.6492 35.5402C74.9636 35.4748 75.0893 35.0626 74.9305 34.8139C73.7655 32.9949 71.6441 32.8084 69.6551 32.9883C69.023 33.0439 69.0362 34.0254 69.675 33.9698C71.2801 33.8259 73.1169 33.816 74.0832 35.3276C74.1759 35.0855 74.2719 34.8434 74.3646 34.6013C71.9751 35.0953 69.483 35.9492 68.414 38.3146C68.1526 38.8872 69.0197 39.3681 69.2811 38.7923Z" fill="#46A358"/>
<path d="M35.4314 24.9138C34.9945 25.4831 34.5047 26.193 33.78 26.4221C33.0651 26.6478 32.3006 26.3239 32.3569 25.47C32.3999 24.8026 32.979 24.3151 33.5417 24.037C34.197 23.7131 35.994 23.5593 35.5174 24.8026C35.2924 25.3948 36.2555 25.627 36.4805 25.0447C36.9405 23.844 35.8352 22.7938 34.6636 22.7709C33.4325 22.748 31.9994 23.5561 31.5361 24.711C31.1026 25.7808 31.556 27.1189 32.7606 27.4232C34.2334 27.7929 35.3487 26.638 36.1496 25.5976C36.5302 25.0938 35.8186 24.41 35.4314 24.9138Z" fill="#46A358"/>
<path d="M43.9965 9.6809C43.3776 9.7954 42.4807 10.1945 41.8618 9.86738C41.2429 9.53694 41.3555 8.71575 41.7129 8.24135C42.0869 7.74733 42.676 7.56739 43.2717 7.73097C43.7549 7.86511 45.2607 9.11489 44.2116 9.54676C43.6291 9.78559 43.9038 10.7311 44.4962 10.489C45.7373 9.97862 45.6942 8.55871 44.8966 7.64591C44.0924 6.72329 42.6528 6.37322 41.5772 7.04392C40.6373 7.63282 40.1144 8.91532 40.6241 9.94263C41.3455 11.4018 43.0334 10.8522 44.2811 10.6231C44.9066 10.5054 44.6186 9.56311 43.9965 9.6809Z" fill="#46A358"/>
<path d="M55.7916 3.6937C54.9311 3.9129 53.9283 4.17136 53.0414 3.9587C51.7937 3.66425 51.7474 2.25089 52.6244 1.51803C53.326 0.932397 54.4016 0.866963 55.2521 1.12215C55.7883 1.28247 56.4171 1.62927 56.5627 2.21162C56.7017 2.758 56.4336 3.29782 55.8776 3.43196C55.2588 3.58246 55.5401 4.5247 56.1623 4.37421C57.6416 4.01432 57.9659 2.19199 57.0558 1.11888C56.0299 -0.0883685 53.9714 -0.294485 52.5913 0.372939C51.294 1.0011 50.503 2.68929 51.3668 3.97833C52.3662 5.47349 54.62 5.00237 56.0729 4.6294C56.6918 4.47563 56.4105 3.53338 55.7916 3.6937Z" fill="#46A358"/>
<path d="M62.8707 13.3419C61.4443 13.09 59.8822 13.4989 59.2302 14.8959C58.7007 16.0279 59.2004 17.4969 60.4316 17.9222C61.6726 18.3508 63.5557 17.8208 64.2441 16.6823C64.9027 15.5863 64.4261 14.1958 63.387 13.5414C62.8475 13.2012 62.3676 14.0616 62.9038 14.3986C63.5723 14.8174 63.7907 15.7695 63.2446 16.3813C62.7581 16.9276 61.719 17.1599 61.014 17.0356C60.1072 16.8753 59.7564 15.9363 60.2098 15.1609C60.7062 14.3136 61.7289 14.1369 62.6291 14.2939C63.2546 14.4052 63.4995 13.4531 62.8707 13.3419Z" fill="#46A358"/>
<path d="M70.5652 18.7663C69.3109 18.6845 67.5734 18.8612 67.2954 20.3793C67.067 21.6225 68.4968 23.2649 69.5922 23.7066C72.7197 24.9662 73.3882 18.6845 70.691 18.8514C70.0555 18.8906 70.0721 19.8721 70.7108 19.8329C71.5878 19.7773 71.3727 21.8286 71.1741 22.2343C70.7075 23.1995 69.8139 22.8461 69.2248 22.231C68.7714 21.7566 67.9573 20.9158 68.4273 20.2353C68.8807 19.581 69.8934 19.7053 70.5851 19.7478C71.2238 19.7904 71.1973 18.8089 70.5652 18.7663Z" fill="#46A358"/>
<path d="M52.6377 6.17685C52.5384 6.50729 52.4358 6.83773 52.3365 7.16817C52.214 7.57386 52.8561 7.7309 52.9785 7.32849C53.0778 6.99805 53.1804 6.66761 53.2797 6.33717C53.4022 5.93148 52.7601 5.77444 52.6377 6.17685Z" fill="#46A358"/>
<path d="M54.0508 6.23258C54.0541 6.45178 54.0608 6.66771 54.0641 6.88692C54.074 7.30896 54.7359 7.29588 54.726 6.87383C54.7227 6.65463 54.716 6.43869 54.7127 6.21949C54.7061 5.79744 54.0442 5.81053 54.0508 6.23258Z" fill="#46A358"/>
<path d="M53.5809 10.1683C54.0078 10.1585 53.9946 9.50415 53.5676 9.51396C53.144 9.52051 53.1573 10.1748 53.5809 10.1683Z" fill="#46A358"/>
<path d="M51.605 10.5348C51.5752 10.8979 51.5455 11.2643 51.519 11.6275C51.5057 11.8042 51.6911 11.9514 51.8566 11.9481C52.0518 11.9448 52.1676 11.7911 52.1809 11.6144C52.2107 11.2513 52.2405 10.8848 52.2669 10.5217C52.2802 10.345 52.0948 10.1978 51.9294 10.201C51.7341 10.2043 51.6183 10.3581 51.605 10.5348Z" fill="#46A358"/>
<path d="M53.1704 11.5948C53.1803 11.9939 53.1869 12.3931 53.1969 12.7955C53.2068 13.2175 53.8687 13.2044 53.8588 12.7824C53.8489 12.3832 53.8422 11.9841 53.8323 11.5817C53.8224 11.1596 53.1605 11.1727 53.1704 11.5948Z" fill="#46A358"/>
<path d="M54.342 9.27847C54.385 9.60564 54.4281 9.9328 54.4711 10.2567C54.4943 10.4334 54.6167 10.5806 54.8087 10.5773C54.9708 10.5741 55.1562 10.4203 55.133 10.2436C55.09 9.91645 55.0469 9.58928 55.0039 9.26538C54.9808 9.08871 54.8583 8.94148 54.6664 8.94476C54.5009 8.94803 54.3155 9.1018 54.342 9.27847Z" fill="#46A358"/>
<path d="M54.438 14.186C54.4413 14.3692 54.4446 14.5492 54.4479 14.7324C54.4578 15.1544 55.1197 15.1413 55.1098 14.7193C55.1065 14.5361 55.1032 14.3561 55.0999 14.1729C55.0899 13.7509 54.428 13.764 54.438 14.186Z" fill="#46A358"/>
<path d="M53.005 8.86957C52.9719 9.19347 53.0447 9.49773 53.1804 9.79218C53.2532 9.9525 53.4981 9.98521 53.6371 9.90015C53.8059 9.79873 53.8191 9.61224 53.7463 9.44866C53.6603 9.26217 53.647 9.05605 53.6669 8.85321C53.6835 8.67654 53.4915 8.52931 53.3293 8.53259C53.1341 8.53913 53.0215 8.6929 53.005 8.86957Z" fill="#46A358"/>
<path d="M50.6949 14.0649C50.6288 14.4313 50.5626 14.7945 50.4964 15.1609C50.4203 15.5731 51.0623 15.7367 51.1384 15.3212C51.2046 14.9548 51.2708 14.5916 51.337 14.2252C51.4098 13.813 50.7711 13.6494 50.6949 14.0649Z" fill="#46A358"/>
<path d="M52.5184 16.3223C52.4886 16.5775 52.4555 16.8327 52.4258 17.0879C52.4059 17.2645 52.4754 17.4379 52.664 17.487C52.8196 17.5263 53.0446 17.4281 53.0678 17.2515C53.0976 16.9963 53.1307 16.7411 53.1605 16.4859C53.1803 16.3092 53.1108 16.1358 52.9222 16.0867C52.7666 16.0442 52.5416 16.1456 52.5184 16.3223Z" fill="#46A358"/>
<path d="M51.936 20.978C51.9889 21.2561 51.9559 21.5277 51.8665 21.7927C51.7308 22.1918 52.3728 22.3521 52.5085 21.953C52.6376 21.5735 52.6475 21.1841 52.5714 20.7915C52.5383 20.6181 52.3199 20.5233 52.161 20.5723C51.9724 20.628 51.8996 20.8046 51.936 20.978Z" fill="#46A358"/>
<path d="M49.9139 18.3378C49.8841 18.593 49.851 18.8482 49.8213 19.1034C49.8014 19.28 49.8709 19.4534 50.0595 19.5025C50.2151 19.5418 50.4401 19.4436 50.4633 19.2669C50.4931 19.0117 50.5262 18.7566 50.556 18.5014C50.5758 18.3247 50.5063 18.1513 50.3177 18.1022C50.1588 18.063 49.9338 18.1611 49.9139 18.3378Z" fill="#46A358"/>
<path d="M54.4215 18.8579C54.5009 19.2211 54.577 19.5842 54.6565 19.9441C54.7458 20.3564 55.3813 20.1666 55.2919 19.7576C55.2125 19.3945 55.1363 19.0313 55.0569 18.6714C54.9676 18.2592 54.3354 18.4457 54.4215 18.8579Z" fill="#46A358"/>
<path d="M54.855 23.6673C54.8616 24.0305 54.8716 24.3936 54.8782 24.7568C54.8881 25.1788 55.55 25.1658 55.5401 24.7437C55.5335 24.3806 55.5236 24.0174 55.5169 23.6542C55.5103 23.2322 54.8484 23.2453 54.855 23.6673Z" fill="#46A358"/>
<path d="M54.0739 28.4637C54.117 28.7189 54.1567 28.9708 54.1997 29.226C54.2295 29.3994 54.4545 29.491 54.6101 29.4452C54.7987 29.3896 54.8616 29.2129 54.8318 29.0395C54.7888 28.7843 54.7491 28.5324 54.7061 28.2772C54.6763 28.1038 54.4512 28.0122 54.2957 28.058C54.107 28.1103 54.0442 28.287 54.0739 28.4637Z" fill="#46A358"/>
<path d="M51.3733 26.0295C51.3766 26.2487 51.3833 26.4647 51.3866 26.6839C51.3965 27.1059 52.0584 27.0928 52.0485 26.6708C52.0452 26.4516 52.0386 26.2356 52.0352 26.0164C52.0286 25.5944 51.3667 25.6075 51.3733 26.0295Z" fill="#46A358"/>
<path d="M49.5498 23.2289C49.573 23.5004 49.5465 23.7556 49.4671 24.0174C49.3447 24.423 49.9867 24.5801 50.1092 24.1777C50.2051 23.8669 50.2382 23.5397 50.2117 23.2158C50.1753 22.8003 49.5134 22.8101 49.5498 23.2289Z" fill="#46A358"/>
<path d="M50.3805 30.7604C50.3474 31.0156 50.3177 31.2708 50.2846 31.526C50.2614 31.7026 50.3342 31.876 50.5228 31.9251C50.6784 31.9644 50.9034 31.8662 50.9266 31.6895C50.9597 31.4343 50.9895 31.1792 51.0226 30.924C51.0457 30.7473 50.9729 30.5739 50.7843 30.5248C50.6254 30.4856 50.4037 30.5837 50.3805 30.7604Z" fill="#46A358"/>
<path d="M53.7562 34.4672C53.7993 34.6831 53.839 34.9023 53.882 35.1182C53.9151 35.2916 54.1335 35.3865 54.2924 35.3374C54.4777 35.2818 54.5472 35.1051 54.5141 34.9317C54.4711 34.7158 54.4314 34.4966 54.3884 34.2807C54.3553 34.1073 54.1368 34.0124 53.978 34.0615C53.7926 34.1171 53.7231 34.2938 53.7562 34.4672Z" fill="#46A358"/>
<path d="M51.9657 38.2133C52.0452 38.5764 52.1279 38.9363 52.2073 39.2995C52.3 39.7117 52.9321 39.5219 52.8428 39.113C52.7633 38.7498 52.6806 38.3899 52.6012 38.0268C52.5085 37.6145 51.8731 37.801 51.9657 38.2133Z" fill="#46A358"/>
<path d="M55.6592 40.5818C55.5897 40.837 55.5235 41.0922 55.454 41.3507C55.3448 41.7596 55.9868 41.9199 56.096 41.511C56.1655 41.2558 56.2317 41.0006 56.3012 40.7421C56.4104 40.3332 55.7684 40.1729 55.6592 40.5818Z" fill="#46A358"/>
<path d="M55.166 12.1871C55.2091 12.4423 55.2521 12.6942 55.2951 12.9494C55.3249 13.1228 55.5499 13.2144 55.7055 13.1686C55.8941 13.113 55.957 12.9363 55.9272 12.7629C55.8842 12.5077 55.8412 12.2558 55.7981 12.0006C55.7684 11.8272 55.5433 11.7356 55.3878 11.7814C55.2024 11.837 55.1362 12.0137 55.166 12.1871Z" fill="#46A358"/>
<path d="M55.2455 16.679C55.2919 17.0061 55.3382 17.33 55.3845 17.6572C55.411 17.8306 55.5269 17.9811 55.7221 17.9778C55.8843 17.9746 56.0696 17.8208 56.0465 17.6441C56.0001 17.317 55.9538 16.9931 55.9075 16.6659C55.881 16.4925 55.7651 16.342 55.5699 16.3453C55.4077 16.3485 55.2191 16.5056 55.2455 16.679Z" fill="#46A358"/>
<path d="M60.2097 20.3106C60.1204 20.8243 60.0277 21.3347 59.9384 21.8483C59.8656 22.2605 60.5076 22.4241 60.5804 22.0086C60.6698 21.495 60.7624 20.9846 60.8518 20.4709C60.9246 20.0587 60.2826 19.8951 60.2097 20.3106Z" fill="#46A358"/>
<path d="M61.4972 19.388C61.5039 19.6432 61.5072 19.8984 61.5138 20.1503C61.5237 20.5724 62.1856 20.5593 62.1757 20.1373C62.1691 19.8821 62.1658 19.6269 62.1591 19.3749C62.1492 18.9529 61.4906 18.966 61.4972 19.388Z" fill="#46A358"/>
<path d="M61.1364 22.8854C61.0735 23.4318 61.0139 23.9781 60.9511 24.5245C60.9047 24.9433 61.5666 24.9237 61.613 24.5114C61.6758 23.9651 61.7354 23.4187 61.7983 22.8723C61.8446 22.4568 61.1827 22.4732 61.1364 22.8854Z" fill="#46A358"/>
<path d="M59.4221 23.844C59.2798 24.1384 59.1408 24.4329 58.9985 24.724C58.8164 25.1036 59.3956 25.4242 59.5776 25.0414C59.7199 24.7469 59.8589 24.4525 60.0012 24.1613C60.1833 23.7818 59.6041 23.4612 59.4221 23.844Z" fill="#46A358"/>
<path d="M58.4259 22.0937C58.3399 22.3162 58.2571 22.5354 58.1711 22.7579C58.1082 22.9247 58.2505 23.1145 58.4094 23.157C58.598 23.2061 58.747 23.085 58.8131 22.9215C58.8992 22.699 58.9819 22.4798 59.068 22.2573C59.1309 22.0904 58.9885 21.9007 58.8297 21.8582C58.641 21.8091 58.4921 21.9269 58.4259 22.0937Z" fill="#46A358"/>
<path d="M60.3156 26.3926C60.3024 26.6838 60.2925 26.975 60.2792 27.2662C60.2627 27.6882 60.9246 27.6719 60.9411 27.2531C60.9544 26.9619 60.9643 26.6707 60.9775 26.3795C60.9941 25.9575 60.3322 25.9739 60.3156 26.3926Z" fill="#46A358"/>
<path d="M61.6726 28.1103C61.6593 28.3818 61.6461 28.6566 61.6328 28.9282C61.6229 29.1048 61.8016 29.2521 61.9704 29.2488C62.1591 29.2455 62.2848 29.0918 62.2948 28.9151C62.308 28.6435 62.3212 28.3687 62.3345 28.0972C62.3444 27.9205 62.1657 27.7733 61.9969 27.7765C61.8082 27.7798 61.6825 27.9336 61.6726 28.1103Z" fill="#46A358"/>
<path d="M61.1497 31.0351C61.1199 31.2707 61.0868 31.5095 61.057 31.7451C61.0339 31.9185 61.11 32.0952 61.2953 32.1442C61.4542 32.1835 61.6759 32.0853 61.6991 31.9087C61.7288 31.6731 61.7619 31.4343 61.7917 31.1987C61.8149 31.0253 61.7388 30.8487 61.5534 30.7996C61.3946 30.757 61.1728 30.8585 61.1497 31.0351Z" fill="#46A358"/>
<path d="M58.6808 29.0133C58.6477 29.2129 58.6146 29.4158 58.5815 29.6153C58.5517 29.7887 58.6377 29.9654 58.8198 30.0145C58.9819 30.0537 59.1937 29.9523 59.2235 29.7789C59.2566 29.5793 59.2897 29.3765 59.3228 29.1769C59.3526 29.0035 59.2665 28.8269 59.0845 28.7778C58.9224 28.7353 58.7105 28.8367 58.6808 29.0133Z" fill="#46A358"/>
<path d="M59.1573 34.2152C59.1606 34.3592 59.164 34.5064 59.1673 34.6504C59.1772 35.0724 59.8391 35.0593 59.8292 34.6373C59.8259 34.4933 59.8225 34.3461 59.8192 34.2022C59.8093 33.7801 59.1474 33.7932 59.1573 34.2152Z" fill="#46A358"/>
<path d="M61.2953 36.1357C61.2986 36.2796 61.3019 36.4268 61.3052 36.5708C61.3151 36.9928 61.977 36.9797 61.9671 36.5577C61.9638 36.4137 61.9605 36.2665 61.9572 36.1226C61.9473 35.7005 61.2853 35.7136 61.2953 36.1357Z" fill="#46A358"/>
<path d="M59.389 40.101C59.4155 40.3562 59.389 40.5918 59.3063 40.8339C59.25 41.0007 59.3824 41.1905 59.5445 41.233C59.7299 41.2788 59.8887 41.1643 59.9483 40.9974C60.0476 40.7063 60.084 40.3955 60.0509 40.0912C60.031 39.9145 59.902 39.7673 59.7133 39.7706C59.5445 39.7706 59.3691 39.9243 59.389 40.101Z" fill="#46A358"/>
<path d="M60.2064 18.6518C60.1204 18.8186 60.031 18.9855 59.945 19.1491C59.7497 19.522 60.3256 19.8427 60.5241 19.4664C60.6102 19.2996 60.6995 19.1327 60.7856 18.9691C60.9809 18.5962 60.405 18.2755 60.2064 18.6518Z" fill="#46A358"/>
<path d="M43.04 12.4324C43.0996 12.776 43.1625 13.1228 43.2221 13.4663C43.2518 13.6397 43.4769 13.7313 43.6324 13.6855C43.8211 13.6299 43.8873 13.4532 43.8542 13.2798C43.7946 12.9363 43.7317 12.5895 43.6721 12.2459C43.6424 12.0725 43.4173 11.9809 43.2618 12.0267C43.0731 12.0824 43.0069 12.259 43.04 12.4324Z" fill="#46A358"/>
<path d="M44.0262 14.595C44.1785 14.9549 44.334 15.3181 44.4863 15.678C44.5558 15.8416 44.7146 15.9528 44.8966 15.8972C45.0522 15.8514 45.1879 15.6551 45.1184 15.4915C44.9661 15.1316 44.8106 14.7684 44.6584 14.4086C44.5889 14.245 44.43 14.1337 44.248 14.1894C44.0924 14.2352 43.9567 14.4315 44.0262 14.595Z" fill="#46A358"/>
<path d="M43.1227 15.8023C43.0466 16.3061 43.0532 16.787 43.1426 17.2843C43.2154 17.6966 43.8475 17.5101 43.778 17.0978C43.7118 16.7249 43.7118 16.3388 43.7681 15.9626C43.8243 15.5503 43.1823 15.3868 43.1227 15.8023Z" fill="#46A358"/>
<path d="M44.3804 17.6932C44.4929 18.0008 44.6021 18.3116 44.7146 18.6191C44.8569 19.015 45.4924 18.8318 45.3501 18.4326C45.2375 18.1251 45.1283 17.8143 45.0158 17.5067C44.8735 17.1109 44.2381 17.2941 44.3804 17.6932Z" fill="#46A358"/>
<path d="M42.8415 19.0019C42.8481 19.3651 42.858 19.7282 42.8646 20.0914C42.8746 20.5134 43.5365 20.5004 43.5265 20.0783C43.5199 19.7152 43.51 19.352 43.5034 18.9888C43.4968 18.5668 42.8349 18.5799 42.8415 19.0019Z" fill="#46A358"/>
<path d="M44.0825 20.2321C44.0891 20.5593 44.0957 20.8864 44.1024 21.2136C44.1123 21.6356 44.7742 21.6226 44.7643 21.2005C44.7576 20.8733 44.751 20.5462 44.7444 20.219C44.7345 19.797 44.0726 19.81 44.0825 20.2321Z" fill="#46A358"/>
<path d="M45.9326 20.8799C46.065 21.2594 46.2007 21.6389 46.333 22.0184C46.472 22.4143 47.1075 22.2311 46.9685 21.8319C46.8361 21.4524 46.7004 21.0729 46.568 20.6934C46.429 20.2975 45.7936 20.4807 45.9326 20.8799Z" fill="#46A358"/>
<path d="M46.6573 24.1384C46.697 24.3379 46.74 24.5375 46.7798 24.7371C46.8162 24.9105 47.0313 25.0054 47.1901 24.9563C47.3755 24.9007 47.4483 24.724 47.4119 24.5506C47.3722 24.351 47.3291 24.1515 47.2894 23.9519C47.253 23.7785 47.0379 23.6836 46.879 23.7327C46.697 23.785 46.6209 23.965 46.6573 24.1384Z" fill="#46A358"/>
<path d="M44.8405 24.1744C44.9497 24.4819 45.0291 24.796 45.0655 25.1199C45.0854 25.2965 45.2144 25.4438 45.4031 25.4405C45.5686 25.4372 45.7473 25.2835 45.7274 25.1068C45.6844 24.724 45.605 24.351 45.4759 23.9879C45.3336 23.592 44.6981 23.7752 44.8405 24.1744Z" fill="#46A358"/>
<path d="M43.1426 22.869C43.1492 23.1242 43.1526 23.3794 43.1592 23.6313C43.1691 24.0533 43.831 24.0403 43.8211 23.6182C43.8145 23.363 43.8111 23.1078 43.8045 22.8559C43.7946 22.4339 43.136 22.4469 43.1426 22.869Z" fill="#46A358"/>
<path d="M43.9402 26.7786C43.9667 27.1058 44.0295 27.4264 44.1388 27.734C44.2811 28.1298 44.9165 27.9466 44.7742 27.5475C44.6815 27.2923 44.6219 27.0338 44.6021 26.7656C44.5723 26.3468 43.9104 26.3599 43.9402 26.7786Z" fill="#46A358"/>
<path d="M45.3898 29.563C45.4494 29.7626 45.5089 29.9622 45.5685 30.1585C45.6877 30.5609 46.3231 30.3777 46.2039 29.972C46.1444 29.7724 46.0848 29.5761 46.0252 29.3765C45.9061 28.9741 45.2707 29.1573 45.3898 29.563Z" fill="#46A358"/>
<path d="M46.1675 27.0372C46.2072 27.1812 46.2469 27.3251 46.2866 27.4723C46.3991 27.878 47.0346 27.6915 46.922 27.2859C46.8823 27.1419 46.8426 26.9979 46.8029 26.8507C46.6904 26.445 46.0549 26.6315 46.1675 27.0372Z" fill="#46A358"/>
<path d="M44.2911 32.4779C44.3738 32.8018 44.4532 33.129 44.536 33.4529C44.6386 33.8618 45.274 33.6753 45.1714 33.2664C45.0887 32.9425 45.0092 32.6153 44.9265 32.2914C44.8239 31.8824 44.1885 32.0689 44.2911 32.4779Z" fill="#46A358"/>
<path d="M45.9358 37.2416C45.9954 37.3855 46.0517 37.5295 46.1112 37.6735C46.1774 37.837 46.3396 37.9483 46.5216 37.8927C46.6805 37.8468 46.8095 37.6505 46.7433 37.487C46.6838 37.343 46.6275 37.1991 46.5679 37.0551C46.5018 36.8915 46.3396 36.7803 46.1576 36.8359C45.9987 36.8817 45.8696 37.078 45.9358 37.2416Z" fill="#46A358"/>
<path d="M67.4808 23.6836C67.3054 24.0337 67.1267 24.3805 66.9513 24.7306C66.7593 25.1068 67.3385 25.4275 67.5305 25.0479C67.7059 24.6979 67.8846 24.3511 68.06 24.001C68.2519 23.6247 67.6728 23.3074 67.4808 23.6836Z" fill="#46A358"/>
<path d="M68.4074 24.5049C68.3247 24.8353 68.2387 25.1625 68.1559 25.4929C68.05 25.9019 68.6921 26.0622 68.798 25.6532C68.8807 25.3228 68.9667 24.9956 69.0495 24.6652C69.1521 24.2595 68.51 24.0992 68.4074 24.5049Z" fill="#46A358"/>
<path d="M67.5933 27.6326C67.5105 27.9074 67.4278 28.1823 67.3417 28.4571C67.2193 28.8628 67.8613 29.0198 67.9838 28.6174C68.0665 28.3426 68.1493 28.0678 68.2353 27.7929C68.3545 27.3905 67.7124 27.2302 67.5933 27.6326Z" fill="#46A358"/>
<path d="M67.0374 26.3076C66.9679 26.4352 66.895 26.566 66.8255 26.6936C66.6204 27.0633 67.1995 27.384 67.4047 27.011C67.4742 26.8834 67.547 26.7525 67.6165 26.6249C67.8217 26.2585 67.2425 25.9379 67.0374 26.3076Z" fill="#46A358"/>
<path d="M68.6722 26.4646C68.6424 26.7198 68.6126 26.975 68.5829 27.2302C68.563 27.4069 68.6325 27.5803 68.8211 27.6293C68.9767 27.6686 69.2017 27.5704 69.2249 27.3938C69.2547 27.1386 69.2845 26.8834 69.3143 26.6282C69.3341 26.4515 69.2646 26.2781 69.076 26.2291C68.9171 26.1898 68.6921 26.2879 68.6722 26.4646Z" fill="#46A358"/>
<path d="M65.5546 28.1626C65.4884 28.372 65.3891 28.5617 65.27 28.745C65.0383 29.0983 65.6175 29.4157 65.8492 29.0623C66.0014 28.8333 66.1139 28.5846 66.1966 28.3229C66.2496 28.1561 66.1238 27.9663 65.9584 27.9238C65.773 27.8812 65.6076 27.9925 65.5546 28.1626Z" fill="#46A358"/>
<path d="M65.5348 30.9763C65.3925 31.2085 65.323 31.4735 65.3362 31.7451C65.356 32.1639 66.018 32.1541 65.9981 31.732C65.9915 31.5684 66.0246 31.4343 66.1139 31.2969C66.3357 30.9337 65.7565 30.6164 65.5348 30.9763Z" fill="#46A358"/>
<path d="M67.259 30.2565C67.1928 30.4757 67.1266 30.6982 67.0637 30.9174C66.9446 31.3231 67.5866 31.4801 67.7058 31.0777C67.772 30.8585 67.8382 30.636 67.901 30.4168C68.0202 30.0111 67.3781 29.8541 67.259 30.2565Z" fill="#46A358"/>
<path d="M66.713 33.4824C66.6435 33.7212 66.5773 33.9568 66.5078 34.1956C66.392 34.6013 67.034 34.7616 67.1499 34.3559C67.2194 34.1171 67.2855 33.8815 67.355 33.6427C67.4709 33.2403 66.8288 33.0799 66.713 33.4824Z" fill="#46A358"/>
<path d="M68.8112 28.8366C68.7946 28.9839 68.7814 29.1278 68.7648 29.275C68.745 29.4517 68.9402 29.5989 69.1024 29.5957C69.301 29.5924 69.4069 29.4386 69.4267 29.2619C69.4433 29.1147 69.4565 28.9708 69.4731 28.8235C69.4929 28.6469 69.2977 28.4997 69.1355 28.5029C68.9369 28.5095 68.831 28.66 68.8112 28.8366Z" fill="#46A358"/>
<path d="M64.6545 35.38C64.6214 35.4912 64.585 35.5992 64.5519 35.7104C64.4261 36.1129 65.0682 36.2732 65.1939 35.8708C65.227 35.7595 65.2634 35.6515 65.2965 35.5403C65.4223 35.1379 64.7802 34.9808 64.6545 35.38Z" fill="#46A358"/>
<path d="M64.1217 38.7203C64.0522 38.9035 63.9794 39.0867 63.9099 39.2699C63.847 39.4335 63.9893 39.6266 64.1482 39.6691C64.3401 39.7182 64.4857 39.5971 64.5519 39.4335C64.6214 39.2503 64.6942 39.0671 64.7637 38.8839C64.8266 38.7203 64.6843 38.5273 64.5254 38.4847C64.3335 38.4357 64.1879 38.5534 64.1217 38.7203Z" fill="#46A358"/>
<path d="M66.7262 37.3888C66.7295 37.4968 66.7295 37.608 66.7328 37.716C66.7427 38.138 67.4046 38.1249 67.3947 37.7029C67.3914 37.5949 67.3914 37.4837 67.3881 37.3757C67.3782 36.9537 66.7163 36.9668 66.7262 37.3888Z" fill="#46A358"/>
<path d="M65.4918 41.7237C65.4753 41.8709 65.462 42.0148 65.4455 42.1621C65.4256 42.3387 65.6209 42.486 65.7831 42.4827C65.9816 42.4794 66.0875 42.3257 66.1074 42.149C66.1239 42.0018 66.1372 41.8578 66.1537 41.7106C66.1736 41.5339 65.9783 41.3867 65.8162 41.3899C65.6209 41.3932 65.5117 41.547 65.4918 41.7237Z" fill="#46A358"/>
<path d="M35.2594 28.0808C35.3157 28.2608 35.3752 28.444 35.4315 28.6239C35.5572 29.0263 36.1927 28.8398 36.0669 28.4374C36.0106 28.2575 35.9511 28.0743 35.8948 27.8943C35.7657 27.4919 35.1303 27.6784 35.2594 28.0808Z" fill="#46A358"/>
<path d="M35.9411 27.3382C36.1629 27.6097 36.3879 27.8813 36.6097 28.1495C36.7222 28.287 36.9638 28.2575 37.0763 28.1397C37.212 27.999 37.1789 27.8158 37.0664 27.6784C36.8446 27.4069 36.6196 27.1353 36.3979 26.867C36.2853 26.7296 36.0437 26.7591 35.9312 26.8769C35.7955 27.0143 35.8286 27.2008 35.9411 27.3382Z" fill="#46A358"/>
<path d="M37.212 29.6415C37.4039 29.9098 37.5959 30.1781 37.7845 30.4431C38.0294 30.7866 38.5954 30.4464 38.3504 30.1029C38.1585 29.8346 37.9665 29.5663 37.7779 29.3013C37.5297 28.9578 36.9638 29.2947 37.212 29.6415Z" fill="#46A358"/>
<path d="M36.3979 30.4234C36.5501 30.6753 36.7023 30.9273 36.8546 31.1792C37.073 31.5391 37.6389 31.1988 37.4205 30.8389C37.2683 30.587 37.116 30.3351 36.9638 30.0832C36.742 29.72 36.1794 30.0603 36.3979 30.4234Z" fill="#46A358"/>
<path d="M37.8805 33.1225C38.0725 33.4628 38.2677 33.803 38.4597 34.1433C38.6682 34.5097 39.2341 34.1694 39.0256 33.803C38.8337 33.4628 38.6384 33.1225 38.4465 32.7823C38.2346 32.4158 37.672 32.7561 37.8805 33.1225Z" fill="#46A358"/>
<path d="M38.4663 32.1311C38.5987 32.3274 38.7311 32.527 38.8634 32.7233C39.0984 33.0734 39.6643 32.7331 39.4294 32.383C39.297 32.1867 39.1646 31.9872 39.0322 31.7909C38.7939 31.4408 38.228 31.7778 38.4663 32.1311Z" fill="#46A358"/>
<path d="M38.7741 30.7572C38.8833 30.9894 39.0686 31.1694 39.2903 31.3003C39.661 31.5129 39.982 30.9404 39.6114 30.7277C39.479 30.6525 39.3996 30.551 39.3367 30.4169C39.2606 30.2566 39.0223 30.2239 38.88 30.3089C38.7178 30.4104 38.6979 30.5968 38.7741 30.7572Z" fill="#46A358"/>
<path d="M36.2919 32.4746C36.3349 32.6545 36.3746 32.8345 36.4176 33.0177C36.4573 33.1911 36.6658 33.286 36.828 33.2369C37.01 33.1846 37.0895 33.0013 37.0497 32.8312C37.0067 32.6513 36.967 32.4713 36.924 32.2881C36.8843 32.1147 36.6758 32.0198 36.5136 32.0689C36.3316 32.1213 36.2522 32.3045 36.2919 32.4746Z" fill="#46A358"/>
<path d="M38.3802 35.8936C38.5325 36.2011 38.6847 36.5087 38.8336 36.8129C38.9131 36.9733 39.148 37.006 39.2903 36.9209C39.4558 36.8228 39.479 36.6297 39.3996 36.4694C39.2473 36.1619 39.0951 35.8543 38.9462 35.5501C38.8667 35.3898 38.6317 35.357 38.4894 35.4421C38.324 35.5435 38.3008 35.7366 38.3802 35.8936Z" fill="#46A358"/>
<path d="M40.8525 34.9679C40.9683 35.1838 41.0808 35.3997 41.1966 35.6156C41.3952 35.9886 41.9578 35.6451 41.7626 35.2754C41.6467 35.0595 41.5342 34.8435 41.4184 34.6276C41.2165 34.2546 40.6539 34.5949 40.8525 34.9679Z" fill="#46A358"/>
<path d="M41.6071 39.6463C41.703 39.8263 41.799 40.0062 41.8983 40.1829C42.1002 40.5558 42.6628 40.2123 42.4642 39.8426C42.3682 39.6627 42.2723 39.4827 42.173 39.3061C41.9711 38.9331 41.4052 39.2734 41.6071 39.6463Z" fill="#46A358"/>
<path d="M42.7819 37.9875C42.8944 38.1675 43.0103 38.3474 43.1228 38.5273C43.3478 38.884 43.9138 38.5437 43.6887 38.1871C43.5762 38.0071 43.4603 37.8272 43.3478 37.6473C43.1195 37.2907 42.5535 37.6309 42.7819 37.9875Z" fill="#46A358"/>
<path d="M44.099 43.0324C44.1917 43.196 44.2877 43.3563 44.3803 43.5199C44.5921 43.8863 45.1548 43.5428 44.9463 43.1796C44.8536 43.0161 44.7576 42.8558 44.6649 42.6922C44.4531 42.3257 43.8872 42.666 44.099 43.0324Z" fill="#46A358"/>
<path d="M33.4259 41.0105C33.6476 41.1152 33.8727 41.2167 34.0944 41.3214C34.4783 41.5013 34.8026 40.9288 34.4154 40.7488C34.1937 40.6441 33.9687 40.5427 33.7469 40.438C33.3663 40.2613 33.042 40.8306 33.4259 41.0105Z" fill="#46A358"/>
<path d="M35.5341 41.9625C35.779 42.1359 36.0239 42.3126 36.2655 42.486C36.4111 42.5906 36.6361 42.5023 36.7156 42.3584C36.8115 42.1882 36.7321 42.0181 36.5865 41.9134C36.3416 41.74 36.0967 41.5633 35.8551 41.3899C35.7095 41.2852 35.4844 41.3736 35.405 41.5175C35.3123 41.6877 35.3918 41.8578 35.5341 41.9625Z" fill="#46A358"/>
<path d="M35.2098 40.9615C35.3786 40.9975 35.5341 41.0531 35.6863 41.1381C36.0603 41.341 36.3813 40.7684 36.0074 40.5656C35.8088 40.4576 35.5937 40.3758 35.3719 40.3268C34.9582 40.2352 34.7928 40.8699 35.2098 40.9615Z" fill="#46A358"/>
<path d="M37.1491 42.3584C37.298 42.4631 37.4469 42.571 37.5959 42.6757C37.7415 42.7772 37.9665 42.6921 38.046 42.5481C38.1419 42.378 38.0625 42.2046 37.9169 42.1032C37.768 41.9985 37.619 41.8905 37.4701 41.7858C37.3245 41.6844 37.0994 41.7695 37.02 41.9134C36.9273 42.0836 37.0035 42.2537 37.1491 42.3584Z" fill="#46A358"/>
<path d="M37.1028 43.3367C37.1789 43.4447 37.255 43.5526 37.3311 43.6606C37.5727 44.0041 38.1387 43.6672 37.8971 43.3204C37.8209 43.2124 37.7448 43.1044 37.6687 42.9965C37.4271 42.6497 36.8579 42.9899 37.1028 43.3367Z" fill="#46A358"/>
<path d="M38.602 43.8634C38.7509 43.9877 38.8999 44.1121 39.0521 44.2364C39.1878 44.3509 39.3897 44.3607 39.5187 44.2266C39.6379 44.1055 39.6478 43.8765 39.5088 43.7653C39.3599 43.6409 39.211 43.5166 39.0587 43.3923C38.923 43.2778 38.7212 43.268 38.5921 43.4021C38.4729 43.5199 38.463 43.7489 38.602 43.8634Z" fill="#46A358"/>
<path d="M72.7628 34.2251C72.4086 34.1597 72.0578 34.1662 71.707 34.2546C71.2933 34.3593 71.482 34.9874 71.8957 34.8827C72.1273 34.8238 72.3623 34.814 72.5973 34.8598C73.0176 34.9384 73.1798 34.3037 72.7628 34.2251Z" fill="#46A358"/>
<path d="M70.4793 34.9022C70.3535 34.9971 70.2244 35.0887 70.0987 35.1836C69.9564 35.2883 69.8902 35.4715 69.9895 35.6351C70.0755 35.7758 70.3006 35.851 70.4462 35.743C70.5719 35.6482 70.701 35.5566 70.8268 35.4617C70.9691 35.357 71.0353 35.1738 70.936 35.0102C70.8499 34.8695 70.6249 34.7975 70.4793 34.9022Z" fill="#46A358"/>
<path d="M70.5851 34.5817C71.012 34.5719 70.9988 33.9175 70.5718 33.9274C70.1449 33.9372 70.1581 34.5915 70.5851 34.5817Z" fill="#46A358"/>
</g>
<g clip-path="url(#clip1_27_654)">
<path d="M37.3859 47.6165C35.0447 53.631 33.3971 59.9164 32.8568 66.3709C32.3966 71.8879 32.5367 77.8382 35.5583 82.6512C35.9051 83.2029 36.7589 82.6749 36.412 82.1198C33.3804 77.2933 33.3871 71.2381 33.9141 65.7245C34.501 59.5813 36.1285 53.5938 38.3564 47.867C38.5898 47.2611 37.6193 47.0174 37.3859 47.6165Z" fill="#727272"/>
<path d="M67.7884 46.6856C73.1145 50.7472 73.1212 58.1935 73.6948 64.3062C73.9849 67.3896 74.3852 70.4832 74.5252 73.5802C74.6553 76.4097 74.4218 79.4153 72.214 81.4191C71.7338 81.8557 72.4575 82.5563 72.9344 82.1231C74.8787 80.3597 75.4791 77.8347 75.5458 75.2725C75.6425 71.6238 75.0322 67.9142 74.692 64.2893C74.095 57.9193 74.0216 50.182 68.4787 45.9545C67.9718 45.5653 67.2748 46.293 67.7884 46.6856Z" fill="#727272"/>
<path d="M35.7583 82.8542C38.5831 83.8865 41.4713 84.1437 44.4428 84.3976C47.7312 84.6785 51.0496 85.1016 54.3547 84.9831C57.7098 84.8647 61.0749 84.3806 64.4099 84.0151C67.3281 83.6936 70.223 83.2874 72.9444 82.1095C73.528 81.8557 73.2512 80.8775 72.6576 81.1348C69.8361 82.3566 66.8412 82.7357 63.8163 83.0606C60.668 83.3991 57.4996 83.856 54.3347 83.9677C51.233 84.0794 48.1248 83.6969 45.0365 83.4363C41.9582 83.1723 38.9366 82.9422 36.0051 81.8726C35.3981 81.6458 35.158 82.6342 35.7583 82.8542Z" fill="#727272"/>
<path d="M37.626 48.1851C39.9538 49.1498 42.3318 50.0027 44.8431 50.3039C47.4544 50.6153 50.1158 50.1685 52.7439 50.2362C54.2013 50.2735 55.512 50.4732 56.9827 50.2599C58.2501 50.0738 59.5174 49.8165 60.748 49.4612C63.2994 48.7233 65.7707 47.6944 68.2753 46.8076C68.8789 46.5943 68.5988 45.6196 67.9885 45.8328C63.0859 47.5691 58.4902 49.5965 53.1974 49.2479C50.9963 49.1024 48.8051 49.4307 46.6107 49.4104C43.6558 49.3799 40.8143 48.4187 38.1062 47.2983C37.5226 47.0547 37.029 47.9381 37.626 48.1851Z" fill="#727272"/>
<path d="M7.66372 51.2414C13.2666 52.135 18.4794 54.8258 22.3847 59.0194C26.1634 63.0776 28.2878 68.4254 32.41 72.1925C32.8869 72.6291 33.5839 71.898 33.1037 71.4614C28.7347 67.4675 26.5502 61.6899 22.3481 57.5369C18.4127 53.6479 13.3233 51.1196 7.91052 50.2565C7.27685 50.1549 7.02672 51.1399 7.66372 51.2414Z" fill="#727272"/>
<path d="M8.53746 49.4239C13.6235 48.246 19.0296 48.9466 23.5987 51.5427C27.2439 53.6141 30.2355 56.8871 34.5877 57.3338C35.2281 57.3981 35.2014 56.3827 34.5677 56.3184C29.6852 55.8175 26.1633 51.3531 21.761 49.5186C17.4688 47.7315 12.763 47.4066 8.25398 48.4491C7.62365 48.5946 7.91047 49.5694 8.53746 49.4239Z" fill="#727272"/>
<path d="M7.72372 48.7435C7.34019 49.2783 7.09339 49.9045 7.00668 50.5577C6.96999 50.8319 7.08672 51.0993 7.3702 51.1737C7.60699 51.238 7.9405 51.079 7.97719 50.8048C8.05389 50.2226 8.25733 49.7115 8.59751 49.2343C8.75759 49.0109 8.61752 48.6691 8.40408 48.5438C8.14727 48.3983 7.88047 48.5235 7.72372 48.7435Z" fill="#727272"/>
<path d="M71.8106 49.6709C73.8783 45.6533 80.4484 45.1355 84.157 46.9767C88.1758 48.9737 90.0301 53.8104 88.3825 58.0412C86.9485 61.7271 83.2632 63.5312 80.2316 65.6567C78.9543 66.5537 77.5335 67.5623 76.6497 68.8857C75.7259 70.27 75.846 72.0301 74.9322 73.411C74.572 73.9559 75.4491 74.4433 75.806 73.9052C76.3829 73.0353 76.5497 72.1079 76.8065 71.1128C77.17 69.7217 77.8971 68.8282 78.9409 67.9177C80.7385 66.3506 82.8463 65.2167 84.7606 63.8121C88.1491 61.3244 90.527 57.7908 89.8967 53.3636C89.3197 49.3325 86.1247 45.9986 82.1793 45.2641C78.2039 44.5229 72.9645 45.237 70.9334 49.1802C70.6366 49.7556 71.5104 50.2497 71.8106 49.6709Z" fill="#727272"/>
<path d="M72.8244 52.2263C74.2085 49.4238 77.3601 48.6995 80.2216 48.9229C82.1293 49.0718 83.3066 49.8334 84.3038 51.4953C85.4077 53.3297 85.3543 54.8833 84.7306 56.8396C83.7501 59.9062 81.9825 61.3277 79.2645 62.7662C77.4835 63.7071 74.7654 64.9392 74.0551 67.0207C73.845 67.6401 74.8155 67.8838 75.0256 67.2712C75.6726 65.3758 78.8476 64.1438 80.4818 63.2671C81.8992 62.509 83.2265 61.673 84.1837 60.336C85.6978 58.224 86.9418 54.775 85.8446 52.2737C84.5039 49.214 82.4528 47.8567 79.1777 47.8804C76.2629 47.9007 73.3247 48.9568 71.954 51.7322C71.6638 52.3143 72.5376 52.8085 72.8244 52.2263Z" fill="#727272"/>
<path d="M54.3081 59.5711C51.3666 60.0145 48.8819 62.2348 48.5851 65.3386C48.3016 68.2968 50.2693 72.1485 53.6111 71.9218C56.6593 71.7153 59.3674 68.7165 59.6475 65.7177C59.9577 62.4176 57.5198 59.5406 54.208 59.6862C53.5644 59.7133 53.5844 60.7287 54.228 60.7016C57.1329 60.573 59.1339 63.2672 58.5903 66.1035C58.1501 68.3983 55.969 70.7134 53.591 70.9097C50.6695 71.1501 49.1787 67.3965 49.6423 64.9595C50.0859 62.6241 52.0569 60.9317 54.3281 60.5899C54.9551 60.4917 54.9451 59.473 54.3081 59.5711Z" fill="#727272"/>
<path d="M54.8817 60.0145C54.7049 57.8619 58.0366 54.5889 59.7042 57.08C60.2211 57.8517 60.7214 59.2225 60.5079 60.1736C60.2778 61.1924 59.294 61.9539 58.5402 62.5801C58.0433 62.993 58.7704 63.6936 59.2606 63.2841C60.4479 62.2992 61.6685 61.1179 61.5552 59.429C61.4618 58.048 60.708 56.2271 59.5208 55.4689C56.9861 53.8477 53.6777 57.5606 53.8811 60.0382C53.9345 60.6847 54.935 60.6678 54.8817 60.0145Z" fill="#727272"/>
<path d="M59.5274 63.5109C60.7814 62.7561 64.0264 62.9558 63.6896 65.1355C63.3694 67.2137 60.718 67.2983 59.1472 67.3186C58.5035 67.3254 58.5235 68.3408 59.1672 68.334C61.3717 68.307 65.227 67.6029 64.6767 64.4383C64.2432 61.9539 60.788 61.5681 59.0038 62.6444C58.4501 62.9795 58.9704 63.846 59.5274 63.5109Z" fill="#727272"/>
<path d="M58.5203 68.5201C60.2745 69.3053 62.2489 71.6374 60.5814 73.5192C58.6304 75.7193 55.8089 73.5429 55.0885 71.4208C54.8784 70.8047 53.9179 71.0891 54.128 71.7118C55.0618 74.4534 58.4269 76.8227 61.0216 74.4974C63.5429 72.2398 61.5385 68.7672 59.0072 67.6299C58.4236 67.3693 57.9333 68.2561 58.5203 68.5201Z" fill="#727272"/>
<path d="M53.6476 71.6746C53.7377 73.3805 53.2674 75.919 51.0063 75.6143C49.9791 75.4756 49.1886 74.538 49.2353 73.4752C49.2754 72.5208 49.939 71.4072 50.3026 70.534C50.5494 69.9383 49.6789 69.4373 49.4288 70.0398C48.8985 71.3192 47.978 72.8118 48.3182 74.2571C48.595 75.4282 49.5055 76.359 50.6728 76.5925C53.651 77.1916 54.7749 74.0743 54.6482 71.6509C54.6148 71.001 53.6143 71.018 53.6476 71.6746Z" fill="#727272"/>
<path d="M50.1659 69.2715C48.3016 70.0534 45.4234 69.8537 44.7731 67.481C44.4896 66.4385 44.8064 65.2065 45.7703 64.6413C46.7074 64.093 47.9181 64.2385 48.9386 64.3637C49.5689 64.4416 49.8224 63.4567 49.1854 63.3788C47.7713 63.2062 46.1671 63.0539 44.9498 63.9745C43.9393 64.7394 43.5291 66.0798 43.7225 67.3152C44.2228 70.5069 47.9014 71.3091 50.4494 70.2429C51.043 69.9992 50.7629 69.021 50.1659 69.2715Z" fill="#727272"/>
<path d="M49.5456 63.4939C47.8613 62.58 46.9809 59.2224 48.4583 57.7704C50.3993 55.8648 52.7839 58.5658 53.9579 60.028C54.3647 60.5323 55.0518 59.7978 54.6516 59.2969C53.1174 57.3879 49.799 54.467 47.5312 57.2187C45.8636 59.2461 46.8608 63.1893 49.0586 64.384C49.6256 64.6921 50.1159 63.8053 49.5456 63.4939Z" fill="#727272"/>
<path d="M51.1531 70.9571C50.3627 71.7288 49.8491 73.8172 51.0631 74.4501C52.5172 75.2116 53.1608 72.6224 53.3543 71.6882C53.441 71.2617 52.794 71.0959 52.7073 71.5224C52.6205 71.9454 52.5105 72.3618 52.3571 72.7679C52.2804 72.9676 52.197 73.1673 52.0969 73.3568C51.9435 73.6513 51.8535 73.8409 51.5 73.8002C50.5461 73.6818 51.1998 71.8507 51.6367 71.4276C51.9435 71.123 51.4633 70.6559 51.1531 70.9571Z" fill="#727272"/>
<path d="M55.452 71.0044C55.2819 71.9792 56.3691 72.7441 57.1462 73.0927C57.9333 73.4448 59.0305 73.5632 59.7676 73.0115C60.4713 72.4835 60.3612 71.5256 60.0577 70.7946C59.6442 69.7995 58.7937 69.1293 57.8099 68.7773C57.403 68.6318 57.2429 69.2918 57.6465 69.4339C58.2401 69.6472 58.7737 70.0059 59.1506 70.5272C59.2806 70.7099 59.3807 70.9029 59.4641 71.1127C59.6575 71.6069 59.6875 71.8303 59.344 72.2601C59.0505 72.6257 58.8971 72.7103 58.4502 72.7137C58.1701 72.7137 57.8799 72.6561 57.6164 72.5614C57.2129 72.4158 55.9956 71.7727 56.099 71.177C56.1724 70.7438 55.5287 70.5746 55.452 71.0044Z" fill="#727272"/>
<path d="M59.3207 66.6248C60.1578 66.8381 60.9915 66.4725 61.6952 66.0224C62.2088 65.694 62.8859 65.095 62.8258 64.4011C62.7758 63.8223 62.2088 63.5482 61.7019 63.4872C60.8281 63.3789 59.971 63.7614 59.2606 64.242C58.9038 64.4823 59.2506 65.0645 59.6075 64.8208C59.9777 64.567 60.3712 64.3436 60.8081 64.2319C61.2117 64.1269 62.3856 63.9577 62.0287 64.8073C61.7153 65.562 60.1945 66.1476 59.4841 65.9682C59.0672 65.8633 58.9038 66.5199 59.3207 66.6248Z" fill="#727272"/>
<path d="M56.209 60.3056C56.1556 59.7912 56.2624 59.2801 56.6292 58.901C56.896 58.6201 57.543 58.2478 57.9232 58.4644C58.2601 58.6573 58.2367 59.4696 58.2367 59.8453C58.2334 60.3835 58.12 60.8946 57.9432 61.3989C57.7998 61.8084 58.4468 61.9709 58.5903 61.5647C58.8771 60.7456 58.9771 59.8859 58.8404 59.0228C58.747 58.4305 58.647 57.8416 57.9899 57.7536C56.5358 57.5539 55.4053 58.9247 55.5487 60.3226C55.5853 60.749 56.2524 60.7389 56.209 60.3056Z" fill="#727272"/>
<path d="M50.0158 62.5699C49.4988 61.9098 49.0553 60.7117 49.2287 59.8621C49.3321 59.3477 49.4522 59.1987 49.9791 59.1446C50.506 59.0904 50.6361 59.2495 51.0163 59.5609C51.4032 59.8757 51.78 60.2006 52.1636 60.5188C52.4937 60.7929 52.9573 60.3089 52.6238 60.0314C51.6833 59.2461 50.1725 57.4353 48.9752 58.8129C48.0481 59.8824 48.6717 61.9403 49.4455 62.9252C49.709 63.2603 50.2826 62.9117 50.0158 62.5699Z" fill="#727272"/>
<path d="M48.8185 65.2065C47.5178 64.6785 45.8202 65.8529 46.0203 67.3354C46.2071 68.7401 48.4383 69.2613 49.4421 68.4693C49.7756 68.2053 49.4321 67.6231 49.0953 67.8905C48.5483 68.3237 47.1876 68.2087 46.7874 67.5622C46.2004 66.6246 47.6312 65.4434 48.4983 65.7988C48.8885 65.9579 49.2153 65.3689 48.8185 65.2065Z" fill="#727272"/>
</g>
<defs>
<clipPath id="clip0_27_654">
<rect width="44" height="49" fill="white" transform="translate(31)"/>
</clipPath>
<clipPath id="clip1_27_654">
<rect width="83" height="40" fill="white" transform="translate(7 45)"/>
</clipPath>
</defs>
</svg>
