<svg width="32" height="33" viewBox="0 0 32 33" fill="none" xmlns="http://www.w3.org/2000/svg">
<rect x="0.5" y="1.09802" width="31" height="31" rx="4.5" stroke="#46A358" stroke-opacity="0.2"/>
<path d="M16 10.0647C18.1333 10.0647 18.4 10.0647 19.2667 10.1314C21.4667 10.198 22.4667 11.2647 22.5333 13.398C22.6 14.2647 22.6 14.4647 22.6 16.598C22.6 18.7314 22.6 18.998 22.5333 19.798C22.4667 21.9314 21.4 22.998 19.2667 23.0647C18.4 23.1314 18.2 23.1314 16 23.1314C13.8667 23.1314 13.6 23.1314 12.8 23.0647C10.6 22.998 9.6 21.9314 9.53333 19.798C9.46667 18.9314 9.46667 18.7314 9.46667 16.598C9.46667 14.4647 9.46667 14.198 9.53333 13.398C9.6 11.2647 10.6667 10.198 12.8 10.1314C13.6 10.0647 13.8667 10.0647 16 10.0647ZM16 8.59802C13.8 8.59802 13.5333 8.59802 12.7333 8.66469C9.8 8.79802 8.2 10.398 8.06667 13.3314C8 14.1314 8 14.398 8 16.598C8 18.798 8 19.0647 8.06667 19.8647C8.2 22.798 9.8 24.398 12.7333 24.5314C13.5333 24.598 13.8 24.598 16 24.598C18.2 24.598 18.4667 24.598 19.2667 24.5314C22.2 24.398 23.8 22.798 23.9333 19.8647C24 19.0647 24 18.798 24 16.598C24 14.398 24 14.1314 23.9333 13.3314C23.8 10.398 22.2 8.79802 19.2667 8.66469C18.4667 8.59802 18.2 8.59802 16 8.59802ZM16 12.4647C13.7333 12.4647 11.8667 14.3314 11.8667 16.598C11.8667 18.8647 13.7333 20.7314 16 20.7314C18.2667 20.7314 20.1333 18.8647 20.1333 16.598C20.1333 14.3314 18.2667 12.4647 16 12.4647ZM16 19.2647C14.5333 19.2647 13.3333 18.0647 13.3333 16.598C13.3333 15.1314 14.5333 13.9314 16 13.9314C17.4667 13.9314 18.6667 15.1314 18.6667 16.598C18.6667 18.0647 17.4667 19.2647 16 19.2647ZM20.2667 11.398C19.7333 11.398 19.3333 11.798 19.3333 12.3314C19.3333 12.8647 19.7333 13.2647 20.2667 13.2647C20.8 13.2647 21.2 12.8647 21.2 12.3314C21.2 11.798 20.8 11.398 20.2667 11.398Z" fill="#46A358" fill-opacity="0.6"/>
</svg>
