<svg width="32" height="33" viewBox="0 0 32 33" fill="none" xmlns="http://www.w3.org/2000/svg">
<rect x="0.5" y="1.09802" width="31" height="31" rx="4.5" stroke="#46A358" stroke-opacity="0.2"/>
<path d="M11.3333 10.3372C11.3333 11.3111 10.6 12.0763 9.66667 12.0763C8.73333 12.0763 8 11.3111 8 10.3372C8 9.36324 8.73333 8.59802 9.66667 8.59802C10.6 8.59802 11.3333 9.36324 11.3333 10.3372ZM11.3333 13.4676H8V24.598H11.3333V13.4676ZM16.6667 13.4676H13.3333V24.598H16.6667V18.7545C16.6667 15.485 20.6667 15.2067 20.6667 18.7545V24.598H24V17.5719C24 12.0763 18.0667 12.285 16.6667 14.998V13.4676Z" fill="#46A358" fill-opacity="0.6"/>
</svg>
