<svg width="83" height="90" viewBox="0 0 83 90" fill="none" xmlns="http://www.w3.org/2000/svg">
<g clip-path="url(#clip0_27_540)">
<path d="M22.2489 40.7766C39.0216 39.0238 55.9383 41.7144 72.6698 39.29C73.4515 39.1753 73.1183 37.9918 72.3407 38.1064C55.7285 40.5104 38.9064 37.8075 22.2489 39.548C21.4672 39.6299 21.459 40.8585 22.2489 40.7766Z" fill="#727272"/>
<path d="M22.0843 39.5726C20.447 40.0804 20.6527 42.21 21.5207 43.3403C22.9442 45.1913 26.1407 45.2323 28.2265 45.0357C29.0123 44.962 29.0164 43.7334 28.2265 43.8071C26.8771 43.9341 25.4784 43.9218 24.166 43.5368C23.4831 43.3362 22.7631 43.0536 22.3723 42.4147C22.1707 42.083 21.784 40.9527 22.4135 40.7602C23.1704 40.5227 22.8454 39.3351 22.0843 39.5726Z" fill="#727272"/>
<path d="M69.7818 39.6748C70.6499 39.6216 71.4891 39.4742 72.3531 39.3595C73.723 39.1752 74.4265 39.5438 74.6651 40.9771C74.8626 42.1689 74.1097 42.517 73.0483 42.8528C72.5464 43.0125 72.0198 43.1108 71.5015 43.2132C70.1151 43.4834 68.7245 43.6186 67.3134 43.6677C66.5236 43.6964 66.5194 44.925 67.3134 44.8963C69.7201 44.8103 76.4794 44.7202 76.2161 40.9321C76.1503 39.9861 75.2329 38.6797 74.373 38.2538C73.0895 37.6149 71.0901 38.3643 69.7777 38.4462C68.9919 38.4954 68.9878 39.724 69.7818 39.6748Z" fill="#727272"/>
<path d="M24.0549 44.7734C23.8862 47.3739 20.9242 48.8441 19.3526 50.6297C18.1184 52.0344 17.1475 53.652 16.444 55.3761C14.9301 59.0701 14.6421 63.2104 15.4114 67.105C16.9953 75.0949 23.0593 81.6883 30.6332 84.5181C31.3778 84.7966 31.6987 83.609 30.9623 83.3346C23.0963 80.3942 16.983 73.0268 16.3001 64.5782C15.975 60.5648 16.8266 56.3876 19.077 53.009C20.9447 50.2079 25.0546 48.4141 25.2891 44.7734C25.3385 43.9871 24.1043 43.9871 24.0549 44.7734Z" fill="#727272"/>
<path d="M70.8226 44.2493C70.8226 47.4805 73.1799 49.5076 75.5783 51.3136C77.6394 52.8617 79.2357 54.3687 80.2518 56.7972C81.1363 58.9063 81.6259 61.1833 81.737 63.4643C82.1401 71.8556 77.2445 79.6448 69.72 83.31C69.0083 83.6581 69.6295 84.7188 70.3413 84.3707C77.3309 80.9675 82.2594 74.0506 82.9177 66.3024C83.2509 62.3832 82.568 58.0668 80.5686 54.6308C78.3676 50.8427 72.0568 49.1063 72.0527 44.2493C72.0568 43.4589 70.8226 43.4589 70.8226 44.2493Z" fill="#727272"/>
<path d="M30.267 83.6172C29.4689 85.3823 30.9006 86.9058 32.6778 86.9877C34.6073 87.0819 36.6437 86.6355 38.5773 86.5536C40.8194 86.4553 43.0615 86.4512 45.3036 86.4839C53.6715 86.6109 62.0352 87.2457 70.366 86.1154C70.6499 86.0785 70.7939 85.7673 70.8185 85.5215C70.8844 84.8335 70.8268 84.3257 70.6252 83.6787C70.3907 82.9251 69.2018 83.2487 69.4362 84.0063C69.6461 84.5018 69.6954 85.0096 69.5843 85.5215C69.7366 85.325 69.8847 85.1284 70.0369 84.9277C63.5409 85.8082 56.9873 85.5871 50.4543 85.3823C47.2866 85.284 44.1147 85.1939 40.9469 85.2472C39.4988 85.2717 38.0507 85.3291 36.6026 85.4274C35.8127 85.4806 35.0269 85.5543 34.2411 85.6321C33.6611 85.6895 30.4439 86.185 31.3284 84.2274C31.6534 83.519 30.592 82.8965 30.267 83.6172Z" fill="#727272"/>
<path d="M22.0802 51.2236C17.0529 57.3788 16.6621 65.9707 21.1751 72.5231C21.3973 72.8467 21.9321 72.5395 21.71 72.2119C17.3615 65.9011 17.6618 57.604 22.5204 51.6536C22.7631 51.3546 22.3312 50.9165 22.0802 51.2236Z" fill="#727272"/>
<path d="M22.4133 74.8042C22.8165 75.3857 23.2773 75.9222 23.7915 76.4095C24.0795 76.6798 24.5156 76.2498 24.2276 75.9754C23.7504 75.5249 23.3225 75.0335 22.944 74.497C22.7219 74.1735 22.1871 74.4765 22.4133 74.8042Z" fill="#727272"/>
<path d="M25.8651 78.3384C26.2641 78.3384 26.2641 77.7241 25.8651 77.7241C25.466 77.7241 25.466 78.3384 25.8651 78.3384Z" fill="#727272"/>
<path d="M69.6295 44.2821C69.3128 45.4615 69.0412 46.6492 69.5061 47.8286C69.9381 48.9221 70.8144 49.909 71.559 50.8141C73.3445 52.9764 76.9977 55.1592 77.1705 58.1733C77.191 58.5664 77.8081 58.5705 77.7876 58.1733C77.66 55.9168 75.9898 54.4712 74.4511 53.0051C73.4597 52.059 72.5258 51.0557 71.6701 49.9827C71.0941 49.2579 70.4441 48.4921 70.1109 47.6198C69.7036 46.5591 69.9381 45.5148 70.222 44.45C70.3248 44.0651 69.7283 43.9012 69.6295 44.2821Z" fill="#727272"/>
<path d="M77.4379 59.5985C77.5243 60.3848 77.6107 61.1711 77.6971 61.9574C77.7382 62.3464 78.3594 62.3505 78.3141 61.9574C78.2278 61.1711 78.1414 60.3848 78.055 59.5985C78.0138 59.2095 77.3967 59.2054 77.4379 59.5985Z" fill="#727272"/>
<path d="M77.4955 63.575C77.5408 63.8043 77.5037 64.0214 77.4173 64.2343C77.3556 64.3899 77.4873 64.5701 77.6313 64.6111C77.8082 64.6602 77.948 64.5497 78.0097 64.3981C78.1373 64.0787 78.1537 63.747 78.0879 63.4112C78.018 63.0262 77.4215 63.19 77.4955 63.575Z" fill="#727272"/>
<path d="M50.7423 59.0824C52.2151 56.2976 54.9879 54.4752 58.2091 54.6349C62.0434 54.8233 66.0751 58.1446 63.3887 62.0678C61.813 64.3653 58.9826 65.8519 56.8968 67.662C54.5806 69.6728 52.4619 71.8883 50.5078 74.2554C50.0059 74.8615 50.8739 75.7338 51.3799 75.1236C54.3585 71.5156 57.7278 68.4647 61.4304 65.6144C63.9029 63.706 66.6387 60.8106 65.1371 57.4566C63.8947 54.68 60.4636 53.3162 57.5715 53.3981C54.1651 53.4964 51.2442 55.4949 49.6726 58.4599C49.3065 59.1602 50.372 59.7827 50.7423 59.0824Z" fill="#727272"/>
<path d="M50.4502 58.1282C47.8131 55.1755 44.5219 52.1328 40.2516 52.3539C37.0838 52.5177 34.3563 54.9094 33.8996 58.0586C33.336 61.8959 36.2158 65.2622 39.0215 67.4859C42.469 70.2175 47.6691 71.1635 50.2486 74.8656C50.697 75.5127 51.7666 74.8984 51.3141 74.2473C49.7055 71.9375 47.3647 70.7499 44.8798 69.5541C41.7203 68.0347 38.606 66.155 36.5737 63.2228C34.3069 59.9588 34.6813 54.9667 39.075 53.7709C43.3741 52.6037 46.9944 56.1093 49.5739 58.9964C50.1046 59.5903 50.9767 58.718 50.4502 58.1282Z" fill="#727272"/>
</g>
<g clip-path="url(#clip1_27_540)">
<path d="M46.4719 12.629C45.283 14.782 43.4688 16.507 41.1404 17.4C40.2313 17.7507 39.0342 17.7303 39.1535 16.4866C39.2275 15.7118 40.0667 15.039 40.6755 14.676C41.7122 14.0562 43.041 13.8523 44.1558 13.3711C44.8798 13.0571 44.2545 12.001 43.5346 12.315C41.5436 13.1754 39.3633 13.3793 38.232 15.4671C37.6272 16.5844 37.4298 18.1381 38.7914 18.7742C40.2683 19.4634 42.3005 18.3501 43.5264 17.5672C45.2295 16.4825 46.5665 15.0022 47.5332 13.2447C47.9199 12.5556 46.8544 11.9357 46.4719 12.629Z" fill="#46A358"/>
<path d="M43.8966 12.1191C42.3992 12.2822 40.9141 12.2904 39.429 12.0131C38.886 11.9111 38.3471 11.7725 37.8205 11.6053C37.3763 11.4748 36.9484 11.3158 36.5247 11.1241C35.8953 10.333 35.957 9.89262 36.7181 9.79476C38.9477 8.09024 42.4321 9.88039 44.6206 10.7082C45.3652 10.9895 45.6861 9.80699 44.9497 9.5297C43.045 8.80793 40.9552 7.72324 38.8613 7.95567C37.6601 8.08616 34.8915 8.60404 34.5707 10.1006C33.8302 13.5667 42.1071 13.5422 43.8966 13.3465C44.6782 13.2568 44.6864 12.0335 43.8966 12.1191Z" fill="#46A358"/>
<path d="M45.353 9.55004C43.4812 8.07796 41.8192 5.78624 41.9097 3.30286C41.9509 2.19778 42.6584 1.72884 43.6828 2.22633C44.2463 2.49954 44.6372 3.19684 44.9457 3.72288C45.6615 4.95437 45.9618 6.36121 46.2251 7.74358C46.3732 8.51428 47.5621 8.18806 47.414 7.41736C47.019 5.35399 46.4554 3.205 44.9169 1.66359C44.0078 0.754243 42.4939 -0.289671 41.4243 0.933666C38.9231 3.7922 42.1977 8.61623 44.4808 10.4145C45.0979 10.8998 45.9782 10.0394 45.353 9.55004Z" fill="#46A358"/>
<path d="M47.3851 7.75594C47.6566 5.79044 48.5205 2.05111 50.7995 1.41497C52.9181 0.827768 52.7083 4.20418 52.1159 5.32149C51.5194 6.44697 50.347 7.50311 49.4955 8.44508C48.9689 9.02821 49.8369 9.89678 50.3676 9.30958C51.5894 7.95575 53.4159 6.40211 53.6792 4.49778C53.8849 3.02162 53.7738 0.791068 52.1324 0.138621C50.635 -0.456736 49.154 0.89709 48.3025 1.96139C47.0478 3.52727 46.4636 5.4683 46.1921 7.42156C46.0851 8.20042 47.274 8.53479 47.3851 7.75594Z" fill="#46A358"/>
<path d="M50.454 9.46465C51.8897 8.27393 54.5555 7.44614 56.3079 8.5186C58.5787 9.91321 55.3618 10.7492 54.3004 10.8185C53.165 10.896 52.0296 10.8266 50.9024 10.6961C50.1167 10.6064 50.1208 11.8298 50.9024 11.9195C52.7454 12.1315 55.2342 12.4047 56.9497 11.4995C58.0152 10.9367 58.7803 9.57475 58.1262 8.42889C57.394 7.14439 55.333 6.83447 53.996 6.87117C52.3381 6.92011 50.8448 7.55624 49.586 8.60016C48.9731 9.1058 49.8493 9.9703 50.454 9.46465Z" fill="#46A358"/>
<path d="M50.5856 11.8786C51.8567 12.3434 53.1197 13.0448 53.8437 14.2274C54.7487 15.7117 54.7693 18.4438 52.1365 17.9341C49.8204 17.4855 48.1461 15.047 47.673 12.9306C47.5003 12.164 46.3114 12.4861 46.4841 13.2568C46.9038 15.1408 47.9528 16.8045 49.5242 17.9585C50.7584 18.8679 52.9263 19.9526 54.3785 18.9209C55.8718 17.8607 55.8718 15.6668 55.1971 14.158C54.3991 12.3801 52.7001 11.3484 50.9229 10.696C50.166 10.4269 49.8451 11.6094 50.5856 11.8786Z" fill="#46A358"/>
<path d="M38.1044 15.2469C34.5008 17.4 31.8433 19.7977 31.2139 24.112C30.5269 28.7974 31.6252 33.6949 32.629 38.2579C32.7977 39.0286 33.9866 38.7024 33.8179 37.9317C32.9293 33.8947 32.0202 29.7109 32.2958 25.5556C32.5961 21.0252 34.9656 18.5499 38.7215 16.3072C39.4044 15.8994 38.7873 14.8391 38.1044 15.2469Z" fill="#46A358"/>
<path d="M54.0082 13.8644C59.0476 14.2559 62.6143 18.2684 63.9677 22.8641C65.4404 27.8675 64.6177 33.1361 63.8155 38.1762C63.6921 38.9469 64.8809 39.2772 65.0044 38.5024C65.9423 32.5896 66.8844 26.3098 64.4613 20.6091C62.6266 16.2907 58.8172 13.0162 54.0082 12.6411C53.2143 12.5799 53.2184 13.8032 54.0082 13.8644Z" fill="#46A358"/>
<path d="M39.3263 17.7832C33.2996 22.1302 35.2536 31.9576 36.4713 38.0662C36.6235 38.8369 37.8165 38.5107 37.6602 37.74C37.0226 34.543 36.4302 31.3093 36.4919 28.0389C36.5536 24.8582 37.1583 20.8497 39.9475 18.8394C40.5851 18.3786 39.9721 17.3184 39.3263 17.7832Z" fill="#46A358"/>
<path d="M46.0934 13.8277C43.8514 17.249 42.4033 21.074 41.8767 25.1273C41.6011 27.2518 41.5805 29.4049 41.8356 31.5335C42.1112 33.8578 42.864 36.0925 43.1438 38.4168C43.2343 39.1875 44.4725 39.1997 44.3779 38.4168C43.8925 34.3594 42.6419 30.6242 42.971 26.473C43.3124 22.1627 44.7934 18.0605 47.1629 14.4435C47.5908 13.7829 46.5253 13.1712 46.0934 13.8277Z" fill="#46A358"/>
<path d="M49.1088 17.6079C50.9477 20.6173 51.3344 24.0223 51.6552 27.4599C51.9885 31.0361 52.26 34.6164 52.4903 38.2008C52.5397 38.9837 53.7738 38.9878 53.7245 38.2008C53.4653 34.1434 53.1732 30.086 52.7536 26.0408C52.4245 22.8642 51.8692 19.7528 50.1743 16.9881C49.7629 16.3193 48.6933 16.931 49.1088 17.6079Z" fill="#46A358"/>
<path d="M54.7241 18.1788C59.3192 23.9081 59.4714 31.2237 59.3068 38.2049C59.2904 38.9919 60.5245 38.9919 60.541 38.2049C60.7137 30.8404 60.4176 23.3291 55.5962 17.3143C55.1026 16.6986 54.2345 17.5712 54.7241 18.1788Z" fill="#46A358"/>
<path d="M46.9532 19.6713C46.8833 19.9445 46.8174 20.2136 46.7475 20.4868C46.6529 20.8701 47.2453 21.0333 47.344 20.6499C47.4139 20.3767 47.4798 20.1076 47.5497 19.8344C47.6443 19.4551 47.0519 19.292 46.9532 19.6713Z" fill="#46A358"/>
<path d="M48.286 21.7957C48.286 22.1015 48.286 22.4074 48.286 22.7132C48.286 23.1087 48.9031 23.1087 48.9031 22.7132C48.9031 22.4074 48.9031 22.1015 48.9031 21.7957C48.9031 21.4001 48.286 21.4001 48.286 21.7957Z" fill="#46A358"/>
<path d="M45.3077 23.7328C45.2748 24.1732 45.2377 24.6177 45.2048 25.0581C45.176 25.4496 45.7931 25.4496 45.8219 25.0581C45.8548 24.6177 45.8918 24.1732 45.9247 23.7328C45.9535 23.3413 45.3365 23.3413 45.3077 23.7328Z" fill="#46A358"/>
<path d="M49.3145 25.8735C49.3145 26.2813 49.3145 26.6891 49.3145 27.0968C49.3145 27.4924 49.9315 27.4924 49.9315 27.0968C49.9315 26.6891 49.9315 26.2813 49.9315 25.8735C49.9315 25.478 49.3145 25.478 49.3145 25.8735Z" fill="#46A358"/>
<path d="M46.9491 28.1163C46.9491 28.5567 46.9491 29.0012 46.9491 29.4416C46.9491 29.8371 47.5662 29.8371 47.5662 29.4416C47.5662 29.0012 47.5662 28.5567 47.5662 28.1163C47.5662 27.7208 46.9491 27.7208 46.9491 28.1163Z" fill="#46A358"/>
<path d="M45.6121 32.6018C45.6121 33.2135 45.6121 33.8252 45.6121 34.4368C45.6121 34.8324 46.2291 34.8324 46.2291 34.4368C46.2291 33.8252 46.2291 33.2135 46.2291 32.6018C46.2291 32.2063 45.6121 32.2063 45.6121 32.6018Z" fill="#46A358"/>
<path d="M43.7814 28.6016C43.8514 29.0094 43.9254 29.4172 43.9954 29.8249C44.0612 30.2123 44.6577 30.0492 44.5919 29.6618C44.5219 29.254 44.4479 28.8463 44.3779 28.4385C44.308 28.0552 43.7115 28.2183 43.7814 28.6016Z" fill="#46A358"/>
<path d="M48.5 34.6408C48.5329 35.0486 48.5699 35.4564 48.6028 35.8642C48.6358 36.2556 49.2528 36.2556 49.2199 35.8642C49.187 35.4564 49.15 35.0486 49.1171 34.6408C49.0842 34.2494 48.463 34.2453 48.5 34.6408Z" fill="#46A358"/>
<path d="M50.347 30.0533C50.3799 30.4611 50.4169 30.8689 50.4498 31.2766C50.4827 31.664 51.0998 31.6681 51.0669 31.2766C51.034 30.8689 50.9969 30.4611 50.964 30.0533C50.9311 29.6618 50.3141 29.6578 50.347 30.0533Z" fill="#46A358"/>
<path d="M57.431 16.4009C57.9082 16.8128 58.3854 17.2247 58.8626 17.6324C59.1629 17.8893 59.5989 17.4571 59.2986 17.2002C58.8214 16.7883 58.3442 16.3765 57.867 15.9687C57.5708 15.7118 57.1307 16.14 57.431 16.4009Z" fill="#46A358"/>
<path d="M57.6901 19.8058C57.9575 20.2829 58.229 20.764 58.4964 21.2411C58.6898 21.5837 59.2246 21.2779 59.0312 20.9312C58.7638 20.4541 58.4923 19.973 58.2249 19.4959C58.0275 19.1533 57.4968 19.4632 57.6901 19.8058Z" fill="#46A358"/>
<path d="M60.1625 20.0056C60.467 20.4174 60.7714 20.8293 61.0758 21.2371C61.3062 21.5511 61.8451 21.2452 61.6106 20.9272C61.3062 20.5153 61.0017 20.1034 60.6973 19.6957C60.4628 19.3858 59.928 19.6875 60.1625 20.0056Z" fill="#46A358"/>
<path d="M61.6846 25.3394C61.7874 26.053 61.8944 26.7666 61.9972 27.4802C62.0548 27.8676 62.6472 27.7045 62.5937 27.3171C62.4909 26.6035 62.3839 25.8899 62.2811 25.1763C62.2194 24.7889 61.627 24.9561 61.6846 25.3394Z" fill="#46A358"/>
<path d="M59.6112 23.5085C59.7141 23.8469 59.8169 24.1895 59.9198 24.5279C60.035 24.9031 60.6273 24.744 60.5163 24.3648C60.4134 24.0263 60.3106 23.6838 60.2077 23.3453C60.0926 22.9702 59.4961 23.1292 59.6112 23.5085Z" fill="#46A358"/>
<path d="M62.8817 31.1746C62.9269 31.6599 62.9187 32.1452 62.8406 32.6263C62.7789 33.0096 63.3712 33.1768 63.4371 32.7894C63.5234 32.2512 63.5522 31.717 63.5029 31.1746C63.4617 30.7873 62.8447 30.7832 62.8817 31.1746Z" fill="#46A358"/>
<path d="M61.4501 33.1116C61.4501 33.4868 61.4501 33.8578 61.4501 34.233C61.4501 34.6285 62.0671 34.6285 62.0671 34.233C62.0671 33.8578 62.0671 33.4868 62.0671 33.1116C62.0671 32.7161 61.4501 32.7161 61.4501 33.1116Z" fill="#46A358"/>
<path d="M62.0877 22.8928C62.2564 23.3006 62.4292 23.7084 62.5979 24.1162C62.6637 24.2711 62.8035 24.3771 62.9763 24.3282C63.1203 24.2915 63.2561 24.1039 63.1902 23.953C63.0216 23.5453 62.8488 23.1375 62.6801 22.7297C62.6143 22.5747 62.4744 22.4687 62.3017 22.5177C62.1577 22.5544 62.026 22.7419 62.0877 22.8928Z" fill="#46A358"/>
<path d="M60.9359 29.9513C60.9359 30.1878 60.9359 30.4284 60.9359 30.6649C60.9359 31.0605 61.553 31.0605 61.553 30.6649C61.553 30.4284 61.553 30.1878 61.553 29.9513C61.553 29.5558 60.9359 29.5558 60.9359 29.9513Z" fill="#46A358"/>
<path d="M62.17 36.7817C62.1536 37.0712 62.0836 37.3485 61.9767 37.6177C61.915 37.7726 62.0466 37.952 62.1906 37.9928C62.3675 38.0417 62.5073 37.9316 62.569 37.7808C62.7007 37.4586 62.7665 37.1283 62.7871 36.7817C62.8118 36.3862 62.1947 36.3902 62.17 36.7817Z" fill="#46A358"/>
<path d="M36.2902 18.8842C36.0804 19.186 35.8706 19.4877 35.6567 19.7895C35.4305 20.1157 35.9653 20.4216 36.1915 20.0994C36.4013 19.7976 36.6111 19.4959 36.825 19.1941C37.0472 18.8679 36.5124 18.5621 36.2902 18.8842Z" fill="#46A358"/>
<path d="M34.5296 23.3452C34.4514 23.7163 34.3774 24.0874 34.2992 24.4625C34.221 24.8458 34.8134 25.013 34.8957 24.6256C34.9739 24.2546 35.0479 23.8835 35.1261 23.5083C35.2042 23.125 34.6077 22.9619 34.5296 23.3452Z" fill="#46A358"/>
<path d="M34.3321 21.1229C34.0071 21.5511 33.7644 22.0241 33.5998 22.5338C33.4764 22.909 34.0729 23.068 34.1963 22.6969C34.3485 22.2361 34.5748 21.8202 34.8669 21.4328C35.1055 21.1148 34.5666 20.813 34.3321 21.1229Z" fill="#46A358"/>
<path d="M33.0773 25.1802C33.0033 25.69 32.9251 26.1956 32.8511 26.7053C32.7935 27.0886 33.39 27.2558 33.4476 26.8684C33.5216 26.3587 33.5998 25.8531 33.6738 25.3434C33.7314 24.956 33.1349 24.7888 33.0773 25.1802Z" fill="#46A358"/>
<path d="M33.6945 28.1163C33.6411 28.626 33.674 29.1276 33.7727 29.6292C33.8468 30.0165 34.4432 29.8534 34.3692 29.466C34.2828 29.0175 34.2664 28.5689 34.3157 28.1163C34.3486 27.7248 33.7316 27.7289 33.6945 28.1163Z" fill="#46A358"/>
<path d="M34.2004 31.9903C34.2333 32.2961 34.2704 32.602 34.3033 32.9078C34.3197 33.0709 34.4308 33.2136 34.6118 33.2136C34.764 33.2136 34.9409 33.075 34.9203 32.9078C34.8874 32.602 34.8504 32.2961 34.8175 31.9903C34.801 31.8272 34.69 31.6844 34.509 31.6844C34.3568 31.6844 34.184 31.8231 34.2004 31.9903Z" fill="#46A358"/>
<path d="M33.2008 34.2902C33.4394 34.6776 33.6122 35.0854 33.7192 35.5298C33.8138 35.9132 34.4062 35.7501 34.3156 35.3667C34.1964 34.8774 33.9989 34.4125 33.7356 33.9803C33.5258 33.6459 32.9951 33.9558 33.2008 34.2902Z" fill="#46A358"/>
<path d="M34.5172 36.8632C34.5871 37.0345 34.6529 37.2017 34.7229 37.373C34.7846 37.5238 34.9286 37.6339 35.1013 37.585C35.2494 37.5442 35.3811 37.3648 35.3153 37.2099C35.2453 37.0386 35.1795 36.8714 35.1096 36.7001C35.0479 36.5492 34.9039 36.4391 34.7311 36.4881C34.5871 36.5248 34.4555 36.7083 34.5172 36.8632Z" fill="#46A358"/>
</g>
<circle cx="37" cy="53" r="37" fill="#46A358" fill-opacity="0.13"/>
<defs>
<clipPath id="clip0_27_540">
<rect width="68" height="49" fill="white" transform="translate(15 38)"/>
</clipPath>
<clipPath id="clip1_27_540">
<rect width="35" height="39" fill="white" transform="translate(31)"/>
</clipPath>
</defs>
</svg>
