<svg width="19" height="18" viewBox="0 0 19 18" fill="none" xmlns="http://www.w3.org/2000/svg">
<path d="M13.8433 14.4026C10.0462 17.2679 4.73837 16.475 1.92691 13.1888C-0.786647 10.0161 -0.616938 5.43912 2.32685 2.54234C5.36855 -0.450535 10.1507 -0.850072 13.6172 1.60503C14.8592 2.48446 15.7866 3.60328 16.3907 4.95754C16.9983 6.31968 17.1829 7.73688 16.9722 9.19848C16.7622 10.6533 16.1492 11.9497 15.1517 13.1596C15.2324 13.2096 15.3184 13.2455 15.3802 13.304C16.4767 14.338 17.5692 15.3758 18.6657 16.4098C18.9256 16.6548 19.055 16.9403 18.9779 17.2842C18.8248 17.9686 17.9644 18.2327 17.4125 17.763C17.1538 17.5432 16.9158 17.301 16.6702 17.0684C15.7694 16.2159 14.8693 15.3629 13.9685 14.5105C13.9311 14.4768 13.8919 14.4453 13.8433 14.4026ZM15.1618 8.08809C15.1713 4.6142 12.2097 1.80564 8.53308 1.80058C4.86654 1.79553 1.90733 4.58161 1.89131 8.05325C1.87528 11.5356 4.83094 14.352 8.51884 14.3683C12.1705 14.3846 15.1523 11.5654 15.1618 8.08809Z" fill="#3D3D3D"/>
</svg>
