<svg width="32" height="33" viewBox="0 0 32 33" fill="none" xmlns="http://www.w3.org/2000/svg">
<rect x="0.5" y="1.09802" width="31" height="31" rx="4.5" stroke="#46A358" stroke-opacity="0.2"/>
<path d="M13.0319 22.598C19.0699 22.598 22.3718 17.9817 22.3718 13.9789C22.3718 13.8477 22.3689 13.7172 22.3624 13.5872C23.0033 13.1597 23.5605 12.626 24 12.0187C23.4118 12.2599 22.7789 12.4223 22.1149 12.4955C22.7926 12.1205 23.313 11.527 23.5585 10.8197C22.9241 11.1668 22.2217 11.419 21.4742 11.5551C20.8749 10.9663 20.0218 10.598 19.0779 10.598C17.2648 10.598 15.7946 11.9548 15.7946 13.627C15.7946 13.8648 15.8236 14.0959 15.8796 14.3177C13.1516 14.1913 10.7324 12.9857 9.11352 11.1529C8.83127 11.6004 8.66877 12.1207 8.66877 12.6754C8.66877 13.7263 9.24837 14.6541 10.1297 15.197C9.59121 15.1818 9.08531 15.0451 8.64293 14.818C8.6422 14.8306 8.6422 14.8434 8.6422 14.8566C8.6422 16.3239 9.77392 17.5488 11.2758 17.8264C11.0001 17.8957 10.71 17.933 10.4105 17.933C10.199 17.933 9.99338 17.9135 9.79339 17.8784C10.2112 19.0818 11.4232 19.9578 12.8601 19.9825C11.7364 20.7951 10.3209 21.2792 8.78305 21.2792C8.51827 21.2792 8.25695 21.2653 8 21.2373C9.45273 22.0964 11.1777 22.598 13.0319 22.598Z" fill="#46A358" fill-opacity="0.6"/>
</svg>
